<svg width="175" height="129" viewBox="0 0 175 129" fill="none" xmlns="http://www.w3.org/2000/svg">
<style>
.wx-arrow { transform-box: fill-box; transform-origin: center; animation: wx-arrow-shape 1.65s cubic-bezier(0.34, 1.56, 0.64, 1) infinite; }
.wx-arrow-2 { animation-delay: 0.16s; }
.wx-arrow-3 { animation-delay: 0.32s; }
@keyframes wx-arrow-shape {
  0%, 100% { transform: translateY(0); }
  38% { transform: translateY(3px); }
  58% { transform: translateY(0.6px); }
  74% { transform: translateY(1.6px); }
}
@media (prefers-reduced-motion: reduce) { .wx-arrow { animation: none; } }
</style>
<g clip-path="url(#clip0_32_3595)">
<path d="M54.439 38.1231C3.03765 35.0968 -25.167 81.7378 74.4595 82.9227C203.289 84.4549 197.926 22.5988 54.439 38.1231Z" fill="#B9372E"/>
<path d="M33.0075 39.8016L32.6327 38.4527L33.0075 39.8016ZM15.7179 47.6366L14.9055 46.4964L15.7179 47.6366ZM12.1879 50.7689L13.2232 51.7113L12.1879 50.7689ZM9.43198 54.5945L8.21009 53.9111L9.43198 54.5945ZM14.7164 70.7807L15.5998 69.6946L14.7164 70.7807ZM41.5026 80.2721L41.1659 81.631L41.5026 80.2721ZM46.216 81.2299L45.996 82.6125L46.216 81.2299ZM60.5171 82.5085L60.4893 83.9082L60.5171 82.5085ZM84.5622 82.6883L84.6185 84.0872L84.5622 82.6883ZM94.1376 82.638L93.9515 81.2505L94.1376 82.638ZM103.704 82.0359L103.76 83.4348L103.704 82.0359ZM108.468 81.6028L108.663 82.9891L108.468 81.6028ZM113.226 81.0824L113.118 79.6866L113.226 81.0824ZM117.968 80.4494L118.228 81.8251L117.968 80.4494ZM122.67 79.6444L122.882 81.0283L122.67 79.6444ZM127.422 79.0473L127.283 77.6542L127.422 79.0473ZM136.77 76.9794L137.025 78.3559L136.77 76.9794ZM162.595 65.1283L163.529 66.1715L162.595 65.1283ZM165.216 52.5449L164.081 53.3647L165.216 52.5449ZM161.982 49.1015L162.867 48.0169L161.982 49.1015ZM158.153 46.3506L158.9 45.1662L158.153 46.3506ZM153.971 44.0859L153.386 45.3582L153.971 44.0859ZM135.622 38.8291L135.373 40.2067L135.622 38.8291ZM130.894 37.9108L130.61 39.2817L130.894 37.9108ZM126.174 37.0903L126.368 35.7037L126.174 37.0903ZM102.296 35.6727L102.219 37.0706L102.296 35.6727ZM83.1549 36.1705L83.0819 34.7724L83.1549 36.1705ZM78.3637 36.3228L78.3485 34.9229L78.3637 36.3228ZM64.0274 37.0722L63.8786 35.6801L64.0274 37.0722ZM59.2827 37.6068L59.1182 36.2165V36.2165L59.2827 37.6068ZM52.0457 37.9428L52.1508 36.5467C50.4861 36.4213 48.8206 36.4198 47.1548 36.5423L47.2575 37.9385L47.3601 39.3348C48.8876 39.2225 50.4142 39.2238 51.9405 39.3388L52.0457 37.9428ZM47.2575 37.9385L47.1548 36.5423C45.5237 36.6622 43.9007 36.8423 42.286 37.0825L42.492 38.4673L42.698 39.852C44.244 39.622 45.798 39.4496 47.3601 39.3348L47.2575 37.9385ZM42.492 38.4673L42.286 37.0825C40.7414 37.3123 39.1871 37.4824 37.6228 37.5928L37.7214 38.9894L37.82 40.3859C39.4559 40.2704 41.0819 40.0925 42.698 39.852L42.492 38.4673ZM37.7214 38.9894L37.6228 37.5928C35.9296 37.7124 34.2657 37.9991 32.6327 38.4527L33.0075 39.8016L33.3822 41.1505C34.8344 40.7471 36.3132 40.4923 37.82 40.3859L37.7214 38.9894ZM33.0075 39.8016L32.6327 38.4527C31.0628 38.8888 29.5111 39.3712 27.9776 39.8999L28.4338 41.2234L28.8901 42.547C30.3695 42.037 31.8668 41.5715 33.3822 41.1505L33.0075 39.8016ZM28.4338 41.2234L27.9776 39.8999C26.4565 40.4242 24.9459 40.9731 23.4459 41.5466L23.9458 42.8543L24.4458 44.162C25.9168 43.5996 27.3983 43.0612 28.8901 42.547L28.4338 41.2234ZM23.9458 42.8543L23.4459 41.5466C21.8745 42.1474 20.3718 42.8981 18.939 43.7977L19.6834 44.9834L20.4278 46.169C21.7071 45.3659 23.0461 44.6971 24.4458 44.162L23.9458 42.8543ZM19.6834 44.9834L18.939 43.7977C17.5601 44.6634 16.2156 45.563 14.9055 46.4964L15.7179 47.6366L16.5303 48.7768C17.7954 47.8754 19.0946 47.0061 20.4278 46.169L19.6834 44.9834ZM15.7179 47.6366L14.9055 46.4964C13.5367 47.4717 12.2853 48.5822 11.1526 49.8265L12.1879 50.7689L13.2232 51.7113C14.222 50.6141 15.324 49.6363 16.5303 48.7768L15.7179 47.6366ZM12.1879 50.7689L11.1526 49.8265C10.0151 51.0762 9.03383 52.4383 8.21009 53.9111L9.43198 54.5945L10.6539 55.2779C11.3732 53.9916 12.2292 52.8033 13.2232 51.7113L12.1879 50.7689ZM9.43198 54.5945L8.21009 53.9111C7.34751 55.4535 6.81323 57.1134 6.6086 58.88L7.99931 59.0411L9.39001 59.2022C9.55253 57.7991 9.97337 56.4946 10.6539 55.2779L9.43198 54.5945ZM7.99931 59.0411L6.6086 58.88C6.3983 60.6956 6.63329 62.4651 7.30945 64.1678L8.61061 63.6511L9.91177 63.1344C9.40572 61.8601 9.23317 60.5562 9.39001 59.2022L7.99931 59.0411ZM8.61061 63.6511L7.30945 64.1678C7.9704 65.8322 8.93496 67.304 10.1969 68.5734L11.1898 67.5864L12.1826 66.5993C11.1879 65.5988 10.433 64.4471 9.91177 63.1344L8.61061 63.6511ZM11.1898 67.5864L10.1969 68.5734C11.3594 69.7428 12.5715 70.8407 13.833 71.8668L14.7164 70.7807L15.5998 69.6946C14.4158 68.7316 13.2768 67.6999 12.1826 66.5993L11.1898 67.5864ZM14.7164 70.7807L13.833 71.8668C15.1462 72.9349 16.5788 73.8307 18.1282 74.5537L18.7202 73.285L19.3122 72.0164C17.9687 71.3894 16.7322 70.6157 15.5998 69.6946L14.7164 70.7807ZM18.7202 73.285L18.1282 74.5537C19.592 75.2368 21.0682 75.889 22.5569 76.5104L23.0962 75.2185L23.6355 73.9265C22.1823 73.3199 20.7412 72.6832 19.3122 72.0164L18.7202 73.285ZM23.0962 75.2185L22.5569 76.5104C24.0363 77.128 25.5234 77.7315 27.0181 78.3212L27.5319 77.0188L28.0456 75.7165C26.5679 75.1336 25.0979 74.5369 23.6355 73.9265L23.0962 75.2185ZM27.5319 77.0188L27.0181 78.3212C28.5549 78.9274 30.1205 79.4418 31.7147 79.8643L32.0734 78.5111L32.432 77.1578C30.9433 76.7632 29.4812 76.2828 28.0456 75.7165L27.5319 77.0188ZM32.0734 78.5111L31.7147 79.8643C33.32 80.2898 34.9505 80.6009 36.6059 80.7976L36.7711 79.4074L36.9363 78.0171C35.4109 77.8359 33.9097 77.5494 32.432 77.1578L32.0734 78.5111ZM36.7711 79.4074L36.6059 80.7976C38.1381 80.9797 39.658 81.2574 41.1659 81.631L41.5026 80.2721L41.8393 78.9132C40.2191 78.5118 38.5847 78.213 36.9363 78.0171L36.7711 79.4074ZM41.5026 80.2721L41.1659 81.631C42.7682 82.0279 44.3782 82.3551 45.996 82.6125L46.216 81.2299L46.4359 79.8473C44.8972 79.6025 43.365 79.2912 41.8393 78.9132L41.5026 80.2721ZM46.216 81.2299L45.996 82.6125C47.6197 82.8708 49.2463 83.0477 50.8757 83.143L50.9574 81.7453L51.0392 80.3477C49.5031 80.2579 47.9687 80.0911 46.4359 79.8473L46.216 81.2299ZM50.9574 81.7453L50.8757 83.143C52.4295 83.2338 53.9939 83.3737 55.569 83.5628L55.7358 82.1727L55.9026 80.7827C54.272 80.587 52.6509 80.442 51.0392 80.3477L50.9574 81.7453ZM55.7358 82.1727L55.569 83.5628C57.2171 83.7606 58.8572 83.8758 60.4893 83.9082L60.5171 82.5085L60.5448 81.1088C59.0075 81.0782 57.4601 80.9696 55.9026 80.7827L55.7358 82.1727ZM60.5171 82.5085L60.4893 83.9082C62.0746 83.9397 63.6667 83.9701 65.2653 83.9995L65.291 82.5997L65.3167 81.1999C63.7195 81.1706 62.1288 81.1402 60.5448 81.1088L60.5171 82.5085ZM65.291 82.5997L65.2653 83.9995C66.8256 84.0281 68.3846 84.1197 69.9423 84.2744L70.0806 82.8812L70.2188 81.488C68.5865 81.326 66.9524 81.23 65.3167 81.1999L65.291 82.5997ZM70.0806 82.8812L69.9423 84.2744C71.6035 84.4392 73.2872 84.4871 74.9927 84.4186L74.9365 83.0197L74.8803 81.6208C73.3013 81.6843 71.7476 81.6398 70.2188 81.488L70.0806 82.8812ZM74.9365 83.0197L74.9927 84.4186C76.6297 84.3528 78.2459 84.2971 79.8412 84.2514L79.8011 82.852L79.7611 81.4526C78.1547 81.4986 76.5277 81.5547 74.8803 81.6208L74.9365 83.0197ZM79.8011 82.852L79.8412 84.2514C81.4474 84.2054 83.0398 84.1507 84.6185 84.0872L84.5622 82.6883L84.506 81.2895C82.9383 81.3525 81.3566 81.4069 79.7611 81.4526L79.8011 82.852ZM84.5622 82.6883L84.6185 84.0872C86.1368 84.0261 87.6822 84.0533 89.2549 84.1692L89.3578 82.7729L89.4607 81.3767C87.7857 81.2533 86.134 81.224 84.506 81.2895L84.5622 82.6883ZM89.3578 82.7729L89.2549 84.1692C90.972 84.2957 92.6622 84.2485 94.3237 84.0256L94.1376 82.638L93.9515 81.2505C92.4877 81.4468 90.9914 81.4895 89.4607 81.3767L89.3578 82.7729ZM94.1376 82.638L94.3237 84.0256C95.8418 83.822 97.3889 83.6888 98.9652 83.6263L98.9098 82.2274L98.8544 80.8285C97.193 80.8944 95.5587 81.0349 93.9515 81.2505L94.1376 82.638ZM98.9098 82.2274L98.9652 83.6263C100.584 83.5622 102.183 83.4983 103.76 83.4348L103.704 82.0359L103.647 80.6371C102.071 80.7006 100.473 80.7644 98.8544 80.8285L98.9098 82.2274ZM103.704 82.0359L103.76 83.4348C105.385 83.3694 107.019 83.2207 108.663 82.9891L108.468 81.6028L108.273 80.2165C106.719 80.4354 105.177 80.5754 103.647 80.6371L103.704 82.0359ZM108.468 81.6028L108.663 82.9891C110.234 82.7679 111.791 82.5977 113.334 82.4783L113.226 81.0824L113.118 79.6866C111.515 79.8106 109.9 79.9873 108.273 80.2165L108.468 81.6028ZM113.226 81.0824L113.334 82.4783C114.959 82.3525 116.591 82.1346 118.228 81.8251L117.968 80.4494L117.708 79.0738C116.169 79.3648 114.639 79.5689 113.118 79.6866L113.226 81.0824ZM117.968 80.4494L118.228 81.8251C119.801 81.5277 121.352 81.2621 122.882 81.0283L122.67 79.6444L122.458 78.2605C120.896 78.4994 119.312 78.7706 117.708 79.0738L117.968 80.4494ZM122.67 79.6444L122.882 81.0283C124.402 80.7958 125.962 80.5998 127.561 80.4404L127.422 79.0473L127.283 77.6542C125.637 77.8182 124.029 78.0203 122.458 78.2605L122.67 79.6444ZM127.422 79.0473L127.561 80.4404C129.272 80.2699 130.935 79.9395 132.55 79.4483L132.142 78.1089L131.735 76.7696C130.299 77.2063 128.816 77.5015 127.283 77.6542L127.422 79.0473ZM132.142 78.1089L132.55 79.4483C134.025 78.9995 135.516 78.6355 137.025 78.3559L136.77 76.9794L136.515 75.6028C134.903 75.9015 133.31 76.2904 131.735 76.7696L132.142 78.1089ZM136.77 76.9794L137.025 78.3559C138.62 78.0605 140.215 77.703 141.811 77.2836L141.455 75.9296L141.099 74.5756C139.568 74.9778 138.04 75.3201 136.515 75.6028L136.77 76.9794ZM141.455 75.9296L141.811 77.2836C143.449 76.853 145.035 76.2902 146.568 75.5952L145.99 74.3202L145.412 73.0451C144.024 73.6745 142.586 74.1847 141.099 74.5756L141.455 75.9296ZM145.99 74.3202L146.568 75.5952C148.018 74.9379 149.467 74.3028 150.917 73.6898L150.372 72.4003L149.827 71.1108C148.355 71.7333 146.883 72.378 145.412 73.0451L145.99 74.3202ZM150.372 72.4003L150.917 73.6898C152.367 73.0768 153.833 72.4787 155.315 71.8957L154.802 70.5929L154.29 69.2902C152.786 69.8817 151.299 70.4885 149.827 71.1108L150.372 72.4003ZM154.802 70.5929L155.315 71.8957C156.936 71.2578 158.432 70.3958 159.799 69.3122L158.93 68.215L158.06 67.1178C156.909 68.0303 155.653 68.7535 154.29 69.2902L154.802 70.5929ZM158.93 68.215L159.799 69.3122C161.08 68.2971 162.323 67.2502 163.529 66.1715L162.595 65.1283L161.661 64.0851C160.498 65.126 159.298 66.137 158.06 67.1178L158.93 68.215ZM162.595 65.1283L163.529 66.1715C164.859 64.9812 165.89 63.5709 166.611 61.95L165.332 61.3805L164.053 60.811C163.494 62.0675 162.7 63.1558 161.661 64.0851L162.595 65.1283ZM165.332 61.3805L166.611 61.95C167.318 60.3626 167.734 58.6979 167.858 56.9631L166.462 56.8632L165.066 56.7633C164.965 58.1742 164.628 59.5211 164.053 60.811L165.332 61.3805ZM166.462 56.8632L167.858 56.9631C167.995 55.0547 167.482 53.2911 166.351 51.7251L165.216 52.5449L164.081 53.3647C164.836 54.4106 165.154 55.5258 165.066 56.7633L166.462 56.8632ZM165.216 52.5449L166.351 51.7251C165.338 50.3233 164.177 49.0858 162.867 48.0169L161.982 49.1015L161.097 50.1861C162.212 51.0965 163.207 52.1546 164.081 53.3647L165.216 52.5449ZM161.982 49.1015L162.867 48.0169C161.61 46.9908 160.287 46.0406 158.9 45.1662L158.153 46.3506L157.407 47.535C158.699 48.3493 159.929 49.233 161.097 50.1861L161.982 49.1015ZM158.153 46.3506L158.9 45.1662C157.508 44.2888 156.059 43.5046 154.555 42.8137L153.971 44.0859L153.386 45.3582C154.78 45.9981 156.12 46.7236 157.407 47.535L158.153 46.3506ZM153.971 44.0859L154.555 42.8137C153.083 42.1377 151.59 41.5 150.074 40.9004L149.559 42.2022L149.044 43.504C150.513 44.0852 151.96 44.7033 153.386 45.3582L153.971 44.0859ZM149.559 42.2022L150.074 40.9004C148.509 40.281 146.897 39.795 145.238 39.4422L144.947 40.8116L144.656 42.1809C146.163 42.5015 147.625 42.9425 149.044 43.504L149.559 42.2022ZM144.947 40.8116L145.238 39.4422C143.662 39.107 142.11 38.7646 140.581 38.4151L140.269 39.7798L139.957 41.1446C141.5 41.4974 143.066 41.8428 144.656 42.1809L144.947 40.8116ZM140.269 39.7798L140.581 38.4151C139.025 38.0591 137.455 37.7379 135.871 37.4514L135.622 38.8291L135.373 40.2067C136.914 40.4856 138.442 40.7983 139.957 41.1446L140.269 39.7798ZM135.622 38.8291L135.871 37.4514C134.321 37.1709 132.757 36.8671 131.178 36.54L130.894 37.9108L130.61 39.2817C132.211 39.6135 133.799 39.9218 135.373 40.2067L135.622 38.8291ZM130.894 37.9108L131.178 36.54C129.56 36.2045 127.956 35.9257 126.368 35.7037L126.174 37.0903L125.98 38.4768C127.506 38.69 129.05 38.9583 130.61 39.2817L130.894 37.9108ZM126.174 37.0903L126.368 35.7037C124.744 35.4769 123.093 35.3643 121.416 35.3652L121.417 36.7652L121.417 38.1652C122.968 38.1644 124.489 38.2684 125.98 38.4768L126.174 37.0903ZM121.417 36.7652L121.416 35.3652C119.835 35.3661 118.27 35.3108 116.722 35.1994L116.622 36.5958L116.521 37.9922C118.138 38.1085 119.77 38.1662 121.417 38.1652L121.417 36.7652ZM116.622 36.5958L116.722 35.1994C115.17 35.0877 113.613 34.9252 112.053 34.7118L111.863 36.0989L111.673 37.486C113.292 37.7074 114.908 37.8762 116.521 37.9922L116.622 36.5958ZM111.863 36.0989L112.053 34.7118C110.397 34.4854 108.739 34.3777 107.079 34.3889L107.088 35.7889L107.098 37.1889C108.624 37.1785 110.149 37.2775 111.673 37.486L111.863 36.0989ZM107.088 35.7889L107.079 34.3889C105.515 34.3995 103.946 34.3615 102.373 34.2748L102.296 35.6727L102.219 37.0706C103.849 37.1604 105.476 37.1999 107.098 37.1889L107.088 35.7889ZM102.296 35.6727L102.373 34.2748C100.762 34.1861 99.1599 34.1126 97.5653 34.0545L97.5143 35.4536L97.4633 36.8527C99.0403 36.9101 100.626 36.9828 102.219 37.0706L102.296 35.6727ZM97.5143 35.4536L97.5653 34.0545C95.9314 33.995 94.283 34.0191 92.6201 34.1267L92.7105 35.5238L92.8008 36.9208C94.3715 36.8193 95.9256 36.7966 97.4633 36.8527L97.5143 35.4536ZM92.7105 35.5238L92.6201 34.1267C90.9977 34.2316 89.3992 34.3448 87.8247 34.4664L87.9325 35.8622L88.0403 37.2581C89.6028 37.1374 91.1897 37.025 92.8008 36.9208L92.7105 35.5238ZM87.9325 35.8622L87.8247 34.4664C86.2681 34.5866 84.6872 34.6886 83.0819 34.7724L83.1549 36.1705L83.2279 37.5686C84.8557 37.4836 86.4599 37.3801 88.0403 37.2581L87.9325 35.8622ZM83.1549 36.1705L83.0819 34.7724C81.4841 34.8558 79.9063 34.9059 78.3485 34.9229L78.3637 36.3228L78.379 37.7227C79.9763 37.7053 81.5926 37.6539 83.2279 37.5686L83.1549 36.1705ZM78.3637 36.3228L78.3485 34.9229C76.7577 34.9402 75.1577 34.9802 73.5487 35.0429L73.6032 36.4418L73.6577 37.8408C75.2409 37.7791 76.8147 37.7397 78.379 37.7227L78.3637 36.3228ZM73.6032 36.4418L73.5487 35.0429C71.943 35.1055 70.3296 35.1847 68.7085 35.2807L68.7912 36.6783L68.8739 38.0758C70.4765 37.9809 72.0711 37.9026 73.6577 37.8408L73.6032 36.4418ZM68.7912 36.6783L68.7085 35.2807C67.0751 35.3774 65.4652 35.5105 63.8786 35.6801L64.0274 37.0722L64.1762 38.4643C65.7177 38.2995 67.2836 38.17 68.8739 38.0758L68.7912 36.6783ZM64.0274 37.0722L63.8786 35.6801C62.3093 35.8479 60.7225 36.0267 59.1182 36.2165L59.2827 37.6068L59.4472 38.9971C61.0412 38.8085 62.6176 38.6309 64.1762 38.4643L64.0274 37.0722ZM59.2827 37.6068L59.1182 36.2165C57.5217 36.4053 56.3275 36.5372 55.529 36.6131L55.6615 38.0068L55.794 39.4005C56.6255 39.3214 57.8455 39.1866 59.4472 38.9971L59.2827 37.6068ZM55.6615 38.0068L55.529 36.6131C54.836 36.679 53.7269 36.6654 52.1508 36.5467L52.0457 37.9428L51.9405 39.3388C53.5555 39.4605 54.857 39.4896 55.794 39.4005L55.6615 38.0068Z" fill="#B9372E"/>
<path d="M63.445 63.4571V57.4506C63.445 56.3641 62.7685 55.5646 61.436 55.5646C60.124 55.5646 59.427 56.4461 59.427 57.5941V63.3956C59.427 64.1746 59.058 64.5231 58.279 64.5231C57.664 64.5231 57.172 64.1951 57.172 63.3956V54.7856C57.172 53.9861 57.541 53.6581 58.2995 53.6581C58.935 53.6581 59.2835 53.9246 59.3655 54.5396C60.042 53.9861 60.821 53.6581 61.805 53.6581C62.9735 53.6581 64.0395 54.1706 64.757 54.8471C65.618 54.0066 66.4175 53.6581 67.8935 53.6581C70.456 53.6581 71.973 55.1751 71.973 57.6966V63.4366C71.973 64.2156 71.6245 64.5231 70.8455 64.5231C70.21 64.5231 69.718 64.2156 69.718 63.4366V57.8401C69.718 56.2411 69.062 55.5441 67.709 55.5441C66.315 55.5441 65.7 56.4051 65.7 57.4506V63.4571C65.7 64.2156 65.29 64.5231 64.552 64.5231C63.855 64.5231 63.445 64.2976 63.445 63.4571ZM82.2894 59.1111C82.2894 57.3891 81.4079 55.6466 79.1939 55.6466C76.9389 55.6466 76.0574 57.4506 76.0574 59.1111C76.0574 60.8946 76.9389 62.5346 79.1939 62.5346C81.4079 62.5346 82.2894 60.8741 82.2894 59.1111ZM79.1734 53.6581C82.7814 53.6581 84.5444 56.4051 84.5444 59.0906C84.5444 61.7966 82.8429 64.5231 79.1734 64.5231C75.5039 64.5231 73.8024 61.8786 73.8024 59.0906C73.8024 56.3436 75.4424 53.6581 79.1734 53.6581ZM94.5814 59.1111C94.5814 57.3891 93.6999 55.6466 91.4859 55.6466C89.2309 55.6466 88.3494 57.4506 88.3494 59.1111C88.3494 60.8946 89.2309 62.5346 91.4859 62.5346C93.6999 62.5346 94.5814 60.8741 94.5814 59.1111ZM91.4654 53.6581C95.0734 53.6581 96.8364 56.4051 96.8364 59.0906C96.8364 61.7966 95.1349 64.5231 91.4654 64.5231C87.7959 64.5231 86.0944 61.8786 86.0944 59.0906C86.0944 56.3436 87.7344 53.6581 91.4654 53.6581ZM108.431 56.7741V63.8261C108.431 67.4341 106.648 68.8281 103.122 68.8281C100.826 68.8281 99.1859 67.9876 98.3659 66.6961C97.9764 66.1016 98.3044 65.5481 98.7964 65.3226H98.7554C99.2269 65.0766 99.8214 65.1381 100.252 65.6916C100.846 66.4911 101.83 66.9421 103.204 66.9421C105.213 66.9421 106.176 66.1426 106.176 64.0926V63.5186C105.336 63.9286 104.413 64.1131 103.327 64.1131C100.272 64.1131 98.2429 62.3501 98.2429 59.1931C98.2429 56.0976 99.9444 53.6581 104.557 53.6581C107.078 53.6581 108.431 54.8471 108.431 56.7741ZM106.176 60.0951V57.0816C106.176 56.0771 105.746 55.6466 104.577 55.6466C101.482 55.6466 100.498 57.1226 100.498 59.1726C100.498 61.2021 101.625 62.1451 103.327 62.1451C105.295 62.1451 106.176 61.5301 106.176 60.0951ZM110.894 63.2316V49.6606C110.894 48.6356 111.263 48.3281 112.021 48.3281C112.8 48.3281 113.149 48.5946 113.149 49.6811V63.2316C113.149 64.1541 112.698 64.5231 112.021 64.5231C111.263 64.5231 110.894 64.1541 110.894 63.2316ZM124.465 59.7671H117.597C117.864 61.5916 118.971 62.5551 120.59 62.5756C121.964 62.5961 122.907 62.1656 123.481 61.3866C123.993 60.6896 124.403 60.5461 125.018 60.8126C125.592 61.0586 125.879 61.6531 125.449 62.3706C124.711 63.6416 122.845 64.5231 120.59 64.5231C117.269 64.5231 115.301 62.6371 115.301 59.0906C115.301 55.6261 117.474 53.6581 120.631 53.6581C123.747 53.6581 125.777 55.6876 125.777 58.5371C125.777 59.3981 125.367 59.7671 124.465 59.7671ZM117.638 57.8196H123.481C123.255 56.4666 122.189 55.5646 120.611 55.5646C119.053 55.5646 117.966 56.4871 117.638 57.8196ZM131.417 63.1496L127.255 55.3186C126.804 54.3961 127.296 53.6581 128.178 53.6581C128.649 53.6581 128.977 53.8221 129.285 54.4166L132.585 60.7511L135.619 54.5601C135.906 53.9246 136.275 53.6581 136.747 53.6581C137.608 53.6581 138.202 54.2936 137.69 55.3801L131.417 68.0696V68.0491C131.191 68.5206 130.802 68.7871 130.392 68.8281C129.408 68.8281 128.895 68.1516 129.326 67.2496L131.417 63.1496ZM148.367 56.1386V63.3341C148.367 64.1951 148.019 64.5231 147.281 64.5231C146.666 64.5231 146.276 64.2566 146.174 63.7441C145.497 64.2361 144.718 64.5231 143.755 64.5231C141.151 64.5231 139.163 62.7396 139.163 59.1521C139.163 55.9131 141.479 53.6581 145.231 53.6581C147.199 53.6581 148.367 54.5601 148.367 56.1386ZM146.112 59.8696V56.8356C146.112 55.9336 145.784 55.6466 145.026 55.6466C142.853 55.6466 141.418 57.1841 141.418 59.1726C141.418 61.3866 142.402 62.5346 143.755 62.5346C145.21 62.5346 146.112 61.7556 146.112 59.8696Z" fill="#FAFAF9"/>
<g clip-path="url(#clip1_32_3595)">
<path d="M42.9737 55.3383C43.2926 55.3383 43.6063 55.3624 43.9218 55.3968C43.0725 51.4753 38.8449 48.5625 34.0175 48.5625C28.6217 48.5625 24.2017 52.2073 24.2017 56.8386C24.2017 59.5107 25.6715 61.7052 28.1294 63.4099L27.1483 66.3364L30.5803 64.6317C31.8075 64.8706 32.7921 65.1181 34.0175 65.1181C34.3261 65.1181 34.6311 65.1043 34.9327 65.082C34.7421 64.4307 34.6294 63.7502 34.6294 63.0404C34.6311 58.789 38.3127 55.3383 42.9737 55.3383ZM37.6974 52.7005C38.4393 52.7005 38.9263 53.1834 38.9263 53.9155C38.9263 54.6441 38.4393 55.1321 37.6974 55.1321C36.9642 55.1321 36.2258 54.6441 36.2258 53.9155C36.2258 53.1817 36.9625 52.7005 37.6974 52.7005ZM30.8282 55.1321C30.0915 55.1321 29.3497 54.6441 29.3497 53.9155C29.3497 53.1834 30.0915 52.7005 30.8282 52.7005C31.5649 52.7005 32.0537 53.1817 32.0537 53.9155C32.0537 54.6441 31.5649 55.1321 30.8282 55.1321ZM51.935 62.9236C51.935 59.033 48.0073 55.8625 43.5959 55.8625C38.9246 55.8625 35.2482 59.0347 35.2482 62.9236C35.2482 66.8245 38.9263 69.9847 43.5959 69.9847C44.5735 69.9847 45.5598 69.7424 46.5409 69.4984L49.2327 70.9625L48.4943 68.5292C50.4651 67.0616 51.935 65.118 51.935 62.9236ZM40.8885 61.7052C40.4014 61.7052 39.9074 61.224 39.9074 60.7326C39.9074 60.248 40.4014 59.7599 40.8885 59.7599C41.6338 59.7599 42.1174 60.248 42.1174 60.7326C42.1174 61.224 41.6338 61.7052 40.8885 61.7052ZM46.2878 61.7052C45.8042 61.7052 45.3119 61.224 45.3119 60.7326C45.3119 60.248 45.8025 59.7599 46.2878 59.7599C47.0262 59.7599 47.5167 60.248 47.5167 60.7326C47.5167 61.224 47.0262 61.7052 46.2878 61.7052Z" fill="white"/>
</g>
<path class="wx-arrow wx-arrow-1" d="M53.0376 12.6641C53.2293 12.8237 53.457 12.9865 53.6714 13.1367C53.8692 13.2754 54.0865 13.4234 54.2075 13.5254H54.2065C56.0141 15.039 56.4669 16.0245 57.4771 17.71C58.7534 19.8402 58.8955 22.0549 58.9048 24.1797H58.9038C58.9071 24.7517 58.8796 25.2126 58.9624 25.6826V25.6846C58.9834 25.8067 59.0381 25.9066 59.1392 25.9854C59.2194 26.0477 59.3503 26.1134 59.5571 26.1494L59.7905 26.1748C60.4602 26.208 60.7213 25.9506 60.7798 25.7949C61.2833 24.4483 61.8356 23.2197 62.0503 21.957C62.3742 20.0449 63.4728 18.3926 65.1343 16.9375C66.4843 15.7552 68.0403 14.6316 69.4321 13.5176C69.5634 13.4126 69.6743 13.3276 69.7769 13.2373C69.879 13.1474 69.9402 13.0792 69.9731 13.0283C69.979 13.0193 69.982 13.0114 69.9849 13.0059C69.9761 12.9914 69.9594 12.9671 69.9263 12.9336C69.9151 12.9223 69.7985 12.8448 69.438 12.8555C69.1903 12.8629 68.8845 12.9107 68.5386 13L68.1802 13.1025C66.5742 13.6081 65.479 14.4557 64.3149 15.3604L64.2935 15.376V15.377C64.1176 15.5132 63.9381 15.6497 63.6079 15.9043L62.8022 16.5254V15.5088C62.8022 15.0999 62.7937 14.744 62.7974 14.4102L62.8062 14.082C63.0158 9.26705 62.9768 8.55513 62.937 7.84863C62.8943 7.09118 62.8489 6.33805 63.0405 1.54199C63.023 1.27102 62.976 1.00334 62.8901 0.75V0.750977C62.8304 0.576749 62.7637 0.46576 62.6733 0.391602C62.5882 0.3219 62.4267 0.239446 62.0913 0.232422C61.63 0.222819 61.3582 0.422882 61.1646 0.681641C60.969 0.942841 60.8694 1.24066 60.7847 1.47949C60.7165 2.93152 60.5384 5.40199 60.3638 7.85937C60.1852 10.3718 60.0123 12.8698 59.9634 14.29V14.293C59.9567 14.4588 59.9261 14.6732 59.9087 14.8643L59.8433 15.5869L59.1919 15.2686C58.9053 15.1284 58.8062 15.0665 58.6577 15.0068C58.0264 14.7534 57.1744 14.2856 56.3647 13.8506C55.5298 13.4019 54.7374 12.9864 54.1626 12.7861C53.6411 12.6049 53.2921 12.4988 52.9028 12.5459C52.9419 12.582 52.9867 12.6217 53.0376 12.6641Z" fill="#3E3E3E" stroke="#3E3E3E"/>
<path class="wx-arrow wx-arrow-2" d="M81.2231 12.6641C81.4148 12.8237 81.6426 12.9865 81.8569 13.1367C82.0548 13.2754 82.272 13.4234 82.3931 13.5254H82.3921C84.1997 15.039 84.6525 16.0245 85.6626 17.71C86.9389 19.8402 87.081 22.0549 87.0903 24.1797H87.0894C87.0927 24.7517 87.0652 25.2126 87.1479 25.6826V25.6846C87.1689 25.8067 87.2237 25.9066 87.3247 25.9854C87.4049 26.0477 87.5358 26.1134 87.7427 26.1494L87.9761 26.1748C88.6457 26.208 88.9069 25.9506 88.9653 25.7949C89.4688 24.4483 90.0212 23.2197 90.2358 21.957C90.5597 20.0449 91.6583 18.3926 93.3198 16.9375C94.6699 15.7552 96.2258 14.6316 97.6177 13.5176C97.749 13.4126 97.8598 13.3276 97.9624 13.2373C98.0645 13.1474 98.1258 13.0792 98.1587 13.0283C98.1645 13.0193 98.1675 13.0114 98.1704 13.0059C98.1616 12.9914 98.145 12.9671 98.1118 12.9336C98.1006 12.9223 97.984 12.8448 97.6235 12.8555C97.3758 12.8629 97.0701 12.9107 96.7241 13L96.3657 13.1025C94.7598 13.6081 93.6645 14.4557 92.5005 15.3604L92.479 15.376V15.377C92.3032 15.5132 92.1237 15.6497 91.7935 15.9043L90.9878 16.5254V15.5088C90.9878 15.0999 90.9792 14.744 90.9829 14.4102L90.9917 14.082C91.2014 9.26705 91.1624 8.55513 91.1226 7.84863C91.0799 7.09118 91.0344 6.33805 91.2261 1.54199C91.2085 1.27102 91.1615 1.00334 91.0757 0.75V0.750977C91.016 0.576749 90.9493 0.46576 90.8589 0.391602C90.7737 0.3219 90.6122 0.239446 90.2769 0.232422C89.8155 0.222819 89.5438 0.422882 89.3501 0.681641C89.1546 0.942841 89.0549 1.24066 88.9702 1.47949C88.902 2.93152 88.7239 5.40199 88.5493 7.85937C88.3708 10.3718 88.1979 12.8698 88.1489 14.29V14.293C88.1422 14.4588 88.1116 14.6732 88.0942 14.8643L88.0288 15.5869L87.3774 15.2686C87.0908 15.1284 86.9918 15.0665 86.8433 15.0068C86.212 14.7534 85.3599 14.2856 84.5503 13.8506C83.7153 13.4019 82.9229 12.9864 82.3481 12.7861C81.8267 12.6049 81.4776 12.4988 81.0884 12.5459C81.1275 12.582 81.1723 12.6217 81.2231 12.6641Z" fill="#3E3E3E" stroke="#3E3E3E"/>
<path class="wx-arrow wx-arrow-3" d="M107.03 12.6641C107.221 12.8237 107.449 12.9865 107.664 13.1367C107.861 13.2754 108.079 13.4234 108.2 13.5254H108.199C110.006 15.039 110.459 16.0245 111.469 17.71C112.746 19.8402 112.888 22.0549 112.897 24.1797H112.896C112.899 24.7517 112.872 25.2126 112.955 25.6826V25.6846C112.976 25.8067 113.03 25.9066 113.131 25.9854C113.212 26.0477 113.342 26.1134 113.549 26.1494L113.783 26.1748C114.452 26.208 114.713 25.9506 114.772 25.7949C115.275 24.4483 115.828 23.2197 116.042 21.957C116.366 20.0449 117.465 18.3926 119.126 16.9375C120.476 15.7552 122.032 14.6316 123.424 13.5176C123.556 13.4126 123.666 13.3276 123.769 13.2373C123.871 13.1474 123.932 13.0792 123.965 13.0283C123.971 13.0193 123.974 13.0114 123.977 13.0059C123.968 12.9914 123.952 12.9671 123.918 12.9336C123.907 12.9223 123.791 12.8448 123.43 12.8555C123.182 12.8629 122.877 12.9107 122.531 13L122.172 13.1025C120.566 13.6081 119.471 14.4557 118.307 15.3604L118.286 15.376V15.377C118.11 15.5132 117.93 15.6497 117.6 15.9043L116.794 16.5254V15.5088C116.794 15.0999 116.786 14.744 116.79 14.4102L116.798 14.082C117.008 9.26705 116.969 8.55513 116.929 7.84863C116.887 7.09118 116.841 6.33805 117.033 1.54199C117.015 1.27102 116.968 1.00334 116.882 0.75V0.750977C116.823 0.576749 116.756 0.46576 116.666 0.391602C116.58 0.3219 116.419 0.239446 116.083 0.232422C115.622 0.222819 115.35 0.422882 115.157 0.681641C114.961 0.942841 114.862 1.24066 114.777 1.47949C114.709 2.93152 114.531 5.40199 114.356 7.85937C114.177 10.3718 114.005 12.8698 113.956 14.29V14.293C113.949 14.4588 113.918 14.6732 113.901 14.8643L113.835 15.5869L113.184 15.2686C112.897 15.1284 112.798 15.0665 112.65 15.0068C112.019 14.7534 111.167 14.2856 110.357 13.8506C109.522 13.4019 108.73 12.9864 108.155 12.7861C107.633 12.6049 107.284 12.4988 106.895 12.5459C106.934 12.582 106.979 12.6217 107.03 12.6641Z" fill="#3E3E3E" stroke="#3E3E3E"/>
<path d="M31.879 108.12C31.4025 108.025 31.1097 107.562 31.2017 107.103L32.0439 102.903C32.1323 102.462 32.5808 102.148 33.0573 102.243L37.5048 103.135L38.5097 98.1226C38.5911 97.7167 38.9725 97.4627 39.3784 97.5441C39.749 97.6184 40.003 97.9997 39.9216 98.4057L39.5996 100.012L46.9239 101.48C47.2768 101.551 47.5202 101.893 47.4459 102.264C47.3752 102.617 47.0185 102.839 46.6656 102.769L39.3413 101.3L38.9167 103.418L44.1407 104.465C44.6172 104.561 44.91 105.023 44.8216 105.465L43.9794 109.665C43.8874 110.124 43.4389 110.438 42.9624 110.342L31.879 108.12ZM42.2853 108.866C42.4795 108.905 42.6702 108.778 42.7091 108.584L43.2328 105.972C43.2682 105.796 43.1447 105.587 42.9506 105.548L33.7203 103.698C33.5438 103.662 33.3496 103.807 33.3142 103.984L32.7905 106.596C32.7516 106.79 32.8785 106.98 33.055 107.016L42.2853 108.866ZM28.2866 113.036C27.9478 112.803 27.9233 112.376 28.1882 112.062C28.7745 111.426 30.0036 110.057 30.5899 109.33C30.8231 108.992 31.2644 108.897 31.6067 109.112C31.949 109.328 32.0194 109.709 31.8075 110.033C31.2176 110.778 29.9708 112.235 29.3598 112.902C29.0701 113.248 28.6183 113.304 28.2866 113.036ZM43.9835 115.963C43.5457 116.04 43.1752 115.782 43.0906 115.38C42.8757 114.621 42.3364 112.915 42.0579 112.015C41.9451 111.662 42.1995 111.309 42.5631 111.235C42.9585 111.186 43.3149 111.423 43.4418 111.797C43.6956 112.545 44.2984 114.392 44.5099 115.077C44.5944 115.479 44.3683 115.875 43.9835 115.963ZM39.1513 114.884C38.6818 114.936 38.3748 114.636 38.3115 114.22C38.2129 113.521 37.8678 111.854 37.7093 111.088C37.6353 110.725 37.9073 110.375 38.2603 110.354C38.6698 110.326 39.0227 110.581 39.0896 110.979C39.2623 111.675 39.611 113.324 39.7377 114.065C39.8081 114.446 39.5255 114.849 39.1513 114.884ZM34.7037 114.176C34.2236 114.19 33.9519 113.896 33.931 113.452C33.8713 112.742 33.6708 111.178 33.5476 110.419C33.5161 110.027 33.841 109.688 34.2081 109.689C34.6141 109.678 34.9069 109.957 34.9526 110.37C35.0406 111.03 35.2728 112.711 35.3501 113.424C35.3781 113.834 35.0885 114.179 34.7037 114.176Z" fill="#8D8D8D"/>
<path d="M64.9317 105.383C64.5537 105.383 64.2657 105.077 64.2657 104.735C64.2657 104.339 64.5537 104.051 64.9317 104.051H71.0697V101.603C71.0697 101.189 71.3937 100.847 71.8257 100.847C72.2217 100.847 72.5637 101.189 72.5637 101.603V104.051H78.7557C79.1517 104.051 79.4217 104.339 79.4217 104.735C79.4217 105.077 79.1517 105.383 78.7557 105.383H72.5637V108.551H79.8717C80.2497 108.551 80.5377 108.857 80.5377 109.235C80.5377 109.595 80.2497 109.901 79.8717 109.901H72.5637V116.129H76.7937C77.0817 116.129 77.2797 115.931 77.2797 115.643V111.827C77.2797 111.449 77.6217 111.161 78.0177 111.161C78.3777 111.161 78.7017 111.449 78.7017 111.827V116.183C78.7017 116.975 78.3057 117.353 77.5857 117.353H66.0477C65.2737 117.353 64.9137 117.011 64.9137 116.183V111.773C64.9137 111.413 65.2377 111.107 65.6157 111.107C65.9937 111.107 66.3357 111.413 66.3357 111.773V115.643C66.3357 115.967 66.4797 116.129 66.8217 116.129H71.0697V109.901H63.7437C63.3657 109.901 63.0777 109.595 63.0777 109.235C63.0777 108.857 63.3657 108.551 63.7437 108.551H71.0697V105.383H64.9317Z" fill="#8D8D8D"/>
<path d="M97.6746 111.279C97.1742 111.338 96.832 111.053 96.7725 110.552L96.2896 106.495C96.2279 105.977 96.4977 105.655 96.9981 105.595L107.937 104.293C108.42 104.236 108.775 104.483 108.837 105.002L109.32 109.059C109.379 109.56 109.096 109.92 108.613 109.977L97.6746 111.279ZM96.0918 116.561C95.7735 116.78 95.3539 116.758 95.0853 116.481C94.8389 116.239 94.8951 115.797 95.1798 115.6C96.926 114.431 98.5432 112.789 99.4195 111.47C99.6514 111.134 99.974 110.951 100.426 111.096C100.821 111.213 100.883 111.586 100.714 111.842C100.591 112.019 100.467 112.197 100.325 112.377L108.922 111.354C109.262 111.314 109.54 111.516 109.614 111.834C109.67 112.153 109.583 112.49 109.325 112.756C108.35 113.706 107.153 114.61 105.746 115.43C107.443 115.681 109.376 115.777 111.716 115.789C112.044 115.804 112.268 116.158 112.201 116.511C112.118 116.883 111.809 117.029 111.41 117.022C108.521 116.967 106.156 116.741 104.124 116.276C102.071 117.299 99.621 118.189 96.745 119.003C96.3581 119.103 96.0415 119.032 95.8602 118.728C95.6747 118.387 95.8939 117.944 96.2471 117.866C98.5324 117.267 100.568 116.554 102.326 115.783C101.042 115.355 99.9066 114.802 98.8657 114.128C98.0592 114.967 97.1413 115.783 96.0918 116.561ZM94.8766 107.57C94.6362 107.834 94.1672 107.853 93.9366 107.591C93.6617 107.261 93.6957 106.786 93.9898 106.515C95.2427 105.315 96.5871 103.36 97.2549 101.812C97.4311 101.465 97.76 101.335 98.1482 101.398C98.5005 101.464 98.7146 101.892 98.5699 102.199C98.4545 102.449 98.3371 102.68 98.2017 102.914L109.838 101.529C110.159 101.491 110.441 101.729 110.476 102.015C110.516 102.355 110.295 102.635 109.974 102.673L97.5157 104.156C96.7718 105.368 95.8785 106.544 94.8766 107.57ZM107.578 109.049C107.811 109.021 107.921 108.881 107.893 108.649L107.77 107.612L97.9394 108.782L98.0628 109.819C98.0904 110.051 98.2305 110.161 98.4628 110.134L107.578 109.049ZM97.7224 106.959L97.8352 107.906L107.666 106.736L107.549 105.753C107.523 105.539 107.379 105.393 107.147 105.42L98.031 106.505C97.8344 106.529 97.6969 106.744 97.7224 106.959ZM100.039 113.481C101.23 114.191 102.468 114.696 103.888 115.053C105.272 114.344 106.451 113.588 107.393 112.823C107.561 112.712 107.511 112.592 107.332 112.613L100.039 113.481Z" fill="#8D8D8D"/>
<path d="M129.978 106.061C129.649 105.979 129.438 105.655 129.537 105.323C129.918 104.2 130.218 102.488 130.293 101.299C130.303 100.984 130.597 100.706 130.946 100.709C131.295 100.713 131.56 101.027 131.539 101.38C131.496 101.811 131.447 102.298 131.362 102.792L133.516 102.362L133.075 100.155C133.004 99.8023 133.244 99.4423 133.597 99.3718C133.95 99.3013 134.31 99.5414 134.381 99.8944L134.822 102.101L138.176 101.431C138.511 101.364 138.825 101.558 138.888 101.876C138.956 102.211 138.765 102.543 138.429 102.61L135.058 103.283L135.52 105.596L139.545 104.792C139.898 104.721 140.219 104.951 140.286 105.286C140.349 105.604 140.137 105.921 139.784 105.992L135.76 106.796L136.165 108.826L139.06 108.247C139.537 108.152 139.918 108.406 140.013 108.883L140.676 112.201C140.902 113.331 140.605 113.959 139.49 114.256C139.211 114.33 138.671 114.474 138.388 114.531C138.018 114.605 137.689 114.432 137.601 114.082C137.513 113.733 137.64 113.451 137.94 113.391C138.156 113.366 138.611 113.257 138.823 113.214C139.384 113.084 139.511 112.893 139.388 112.275L138.905 109.857C138.855 109.61 138.711 109.529 138.481 109.575L136.398 109.991L137.548 115.745C137.622 116.116 137.382 116.476 137.029 116.546C136.676 116.617 136.316 116.377 136.242 116.006L135.092 110.252L133.098 110.65C132.85 110.7 132.752 110.848 132.797 111.077L133.654 115.367C133.725 115.72 133.495 116.041 133.16 116.108C132.807 116.178 132.489 115.967 132.419 115.614L131.417 110.601C131.322 110.124 131.576 109.743 132.053 109.648L134.859 109.087L134.454 107.057L130.059 107.935C129.723 108.002 129.406 107.79 129.342 107.473C129.275 107.137 129.483 106.802 129.819 106.735L134.214 105.857L133.752 103.544L131.14 104.066C131.03 104.621 130.896 105.143 130.765 105.591C130.687 105.937 130.341 106.135 129.978 106.061ZM143.394 114.687C142.882 114.789 142.519 114.623 142.42 114.221C142.286 113.734 142.515 113.413 142.889 113.356C143.352 113.282 144.182 113.116 144.64 113.025C145.541 112.845 145.753 112.527 145.569 111.609L142.885 98.1768C142.815 97.8238 143.055 97.4638 143.426 97.3897C143.779 97.3192 144.103 97.5663 144.174 97.9194L146.893 111.528C147.21 113.117 146.857 113.922 145.367 114.275C144.806 114.405 143.729 114.62 143.394 114.687ZM142.646 110.762C142.293 110.832 141.962 110.641 141.891 110.288L139.937 100.51C139.867 100.157 140.093 99.8178 140.446 99.7473C140.781 99.6803 141.12 99.9062 141.19 100.259L143.144 110.038C143.215 110.391 142.982 110.695 142.646 110.762Z" fill="#8D8D8D"/>
</g>
<defs>
<clipPath id="clip0_32_3595">
<rect width="175" height="129" fill="white"/>
</clipPath>
<clipPath id="clip1_32_3595">
<rect width="28" height="28" fill="white" transform="translate(24.2017 45.7637)"/>
</clipPath>
</defs>
</svg>
