<svg width="154" height="58" viewBox="0 0 154 58" fill="none" xmlns="http://www.w3.org/2000/svg">
<rect width="153.143" height="57.3594" rx="28.6797" fill="#B74135"/>
<path d="M79.916 38.417C80.036 38.342 80.2043 38.1833 80.4033 37.9443C80.6113 37.6946 80.8216 37.4007 81.0107 37.1309C81.1903 36.8747 81.3664 36.6181 81.4854 36.4766V36.4756C83.3584 34.2385 84.5615 33.6892 86.6875 32.415C88.9785 31.0424 91.3524 30.7327 93.6953 30.6689L94.6973 30.6543C95.3956 30.6502 96.0107 30.687 96.6289 30.5781H96.6309C96.8391 30.5423 97.0211 30.4439 97.1611 30.2637C97.2867 30.1021 97.3953 29.8529 97.4365 29.4766L97.4502 29.3076C97.4949 28.4108 97.1515 27.9469 96.8135 27.8203C95.1414 27.1951 93.5606 26.4851 91.9424 26.21C89.6095 25.8148 87.5793 24.4731 85.7744 22.4121C84.2913 20.7186 82.8931 18.7815 81.4805 17.0166H81.4795C81.3515 16.8565 81.2388 16.7091 81.1201 16.5742C81.0017 16.4397 80.8988 16.3428 80.8066 16.2832C80.7183 16.2261 80.6628 16.2179 80.626 16.2217C80.5883 16.2257 80.5074 16.2487 80.3809 16.374C80.2905 16.4637 80.196 16.7022 80.21 17.1709C80.22 17.5047 80.2837 17.9073 80.3994 18.3555L80.5322 18.8184C81.1827 20.8846 82.2744 22.2933 83.4111 23.7559L83.4316 23.7822V23.7832C83.6029 24.0043 83.7744 24.2277 84.0957 24.6445L84.5713 25.2617H83.792C83.0942 25.2617 82.543 25.2825 82.0088 25.2588C76.1052 25.2484 72.7481 25.3415 69.4941 25.4365C66.2382 25.5316 63.0841 25.6271 57.5947 25.6201H57.5957C57.2263 25.6417 56.8574 25.706 56.5059 25.8252H56.5068C56.2674 25.9073 56.0797 26.0102 55.9453 26.1738C55.8307 26.3136 55.7276 26.5305 55.6973 26.8926L55.6895 27.0566C55.6752 27.7319 55.9772 28.1429 56.3525 28.4238C56.7262 28.7035 57.1539 28.8438 57.4502 28.9492C62.0312 29.2724 79.4276 29.3547 82.2334 29.3232H82.2529C82.4556 29.3314 82.6969 29.3667 82.96 29.3906L83.5137 29.4404L83.2695 29.9404C83.103 30.2811 83.0127 30.4309 82.9336 30.6279C82.6214 31.4055 82.0422 32.4609 81.4912 33.4863C80.9297 34.5314 80.3962 35.547 80.1367 36.292C79.8492 37.1192 79.6843 37.6663 79.916 38.417Z" fill="white" stroke="white" stroke-width="0.766031"/>
</svg>
